<?xml version="1.0" encoding="utf-8"?>
<?xml-stylesheet type="text/xsl" href="rss1.xsl"?>
<rss version="2.0" xmlns:atom="http://www.w3.org/2005/Atom" xmlns:content="http://purl.org/rss/1.0/modules/content/" xmlns:dc="http://purl.org/dc/elements/1.1/" xmlns:media="http://search.yahoo.com/mrss/">
<channel>
 <title>Getty</title>
 <link>http://www.gettyimg.com/</link>
 <atom:link href="http://www.gettyimg.com/" rel="self" type="application/rss+xml" />

 
                <item>
                <title><![CDATA[【PRORES HD】BABYMONSTER - BATTER UP LIVE PERFORMANCE (School Ver.) 2023 Master 2160p ProRes - 10.78GB]]></title>
                <link><![CDATA[https://sharemania.us/threads/babymonster-batter-up-live-performance-school-ver-2023-master-2160p-prores-10-78gb.233641/]]></link>
                <description><![CDATA[<article>
<blockquote class="messageText SelectQuoteContainer ugc baseHtml">
<img src="https://whalehd.com/wp-content/uploads/2023/12/08/04/57/BABYMONSTER-BATT-2023-12-09_00-57-19_271806-scaled.jpg" class="bbCodeImage LbImage" alt="[​IMG]" data-url="https://whalehd.com/wp-content/uploads/2023/12/08/04/57/BABYMONSTER-BATT-2023-12-09_00-57-19_271806-scaled.jpg" style=""> <br>
<br>
<div class="bbCodeBlock bbCodeVfcHH HiddenContent">
<div class="attribution type">Hidden Content:</div>
<blockquote>You must reply before you can see the hidden data contained here.</blockquote>
</div>
<div class="messageTextEndMarker">&nbsp;</div>
</blockquote>
</article>]]></description>
                <author><![CDATA[forevervideo]]></author>
                </item>

                
                <item>
                <title><![CDATA[【Unreleased/Unofficial (lossy)】Dolby Atmos - Taylor Swift - Gorgeous (Dolby Digital Plus 5.1)]]></title>
                <link><![CDATA[https://sharemania.us/threads/taylor-swift-gorgeous-dolby-digital-plus-5-1.233640/]]></link>
                <description><![CDATA[<article>
<blockquote class="messageText SelectQuoteContainer ugc baseHtml">
<div style="text-align: center"><b>This Dolby is a fan made by me, it doesn't have the Dolby Atmos JOC, it was just made with standard 5.1 using the original stems from gorgeous posted by <a href="https://sharemania.us/members/145617/" class="username" data-user="145617, @szymek04sawicki">@szymek04sawicki</a>, I hope you like it!</b><br>
<b><br>
[ Dolby Digital Plus | <br>
5.1 | 48.0kHz | 768k ]</b>​</div><b><br>
<div class="bbCodeBlock bbCodeVfcHH HiddenContent">
<div class="attribution type">Hidden Content:</div>
<blockquote>You must either reply or click 'Like' to see the hidden information contained here.</blockquote>
</div></b>
<div class="messageTextEndMarker">&nbsp;</div>
</blockquote>
</article>]]></description>
                <author><![CDATA[Richard Bowen]]></author>
                </item>

                
                <item>
                <title><![CDATA[【Apple Music】WEB-RiP - Timbaland feat. Justin Timberlake &amp; Nelly Furtado - Give It to Me (1080p)]]></title>
                <link><![CDATA[https://sharemania.us/threads/timbaland-feat-justin-timberlake-nelly-furtado-give-it-to-me-1080p.233637/]]></link>
                <description><![CDATA[<article>
<blockquote class="messageText SelectQuoteContainer ugc baseHtml">
<img src="https://i.imgur.com/T5YxiOo.jpg" class="bbCodeImage LbImage" alt="[​IMG]" data-url="https://i.imgur.com/T5YxiOo.jpg" style=""><br>
<br>
<div class="bbCodeBlock bbCodeCode">
<div class="type">Code:</div>
<pre>General
Complete name                  : G:\Новая папка\Timbaland feat. Justin Timberlake &amp; Nelly Furtado - Give It to Me.mp4
Format                         : MPEG-4
Format profile                 : Base Media
Codec ID                       : isom (isom/iso2/avc1/mp41)
File size                      : 189 MiB
Duration                       : 3 min 56 s
Overall bit rate               : 6 696 kb/s
Frame rate                     : 23.976 FPS
Movie name                     : Give It to Me
Performer                      : Timbaland feat. Justin Timberlake &amp; Nelly Furtado
Genre                          : Hip-Hop/Rap
ContentType                    : Music Video
Recorded date                  : 2007-01-01 08:00:00 UTC
Writing application            : Lavf56.30.100
Copyright                      : ℗ 2007 Blackground Records/Interscope Records

Video
ID                             : 1
Format                         : AVC
Format/Info                    : Advanced Video Codec
Format profile                 : High@L4
Format settings                : CABAC / 4 Ref Frames
Format settings, CABAC         : Yes
Format settings, Reference fra : 4 frames
Codec ID                       : avc1
Codec ID/Info                  : Advanced Video Coding
Duration                       : 3 min 56 s
Duration_FirstFrame            : 42 ms
Bit rate                       : 6 415 kb/s
Width                          : 1 920 pixels
Height                         : 1 080 pixels
Display aspect ratio           : 16:9
Frame rate mode                : Constant
Frame rate                     : 23.976 (24000/1001) FPS
Color space                    : YUV
Chroma subsampling             : 4:2:0
Bit depth                      : 8 bits
Scan type                      : Progressive
Bits/(Pixel*Frame)             : 0.129
Stream size                    : 181 MiB (96%)
Language                       : English
Color range                    : Limited
Color primaries                : BT.709
Transfer characteristics       : BT.709
Matrix coefficients            : BT.709
Codec configuration box        : avcC

Audio
ID                             : 2
Format                         : AAC LC
Format/Info                    : Advanced Audio Codec Low Complexity
Codec ID                       : mp4a-40-2
Duration                       : 3 min 56 s
Duration_LastFrame             : -1 ms
Bit rate mode                  : Constant
Bit rate                       : 277 kb/s
Channel(s)                     : 2 channels
Channel layout                 : L R
Sampling rate                  : 48.0 kHz
Frame rate                     : 46.875 FPS (1024 SPF)
Compression mode               : Lossy
Stream size                    : 7.79 MiB (4%)
Default                        : Yes
Alternate group                : 1

</pre>
</div>
<div class="bbCodeBlock bbCodeVfcHH HiddenContent">
<div class="attribution type">Hidden Content:</div>
<blockquote>You must either reply or click 'Like' to see the hidden information contained here.</blockquote>
</div>
<div class="messageTextEndMarker">&nbsp;</div>
</blockquote>
</article>]]></description>
                <author><![CDATA[vitalya3]]></author>
                </item>

                
                <item>
                <title><![CDATA[【HD Live Performances】WEB-DL - Los Ángeles Azules Cumbia Sinfónica para el Corazón En Vivo Auditorio Nacional de México 2023 Star+.WEB-DL.720p-Tknobi]]></title>
                <link><![CDATA[https://sharemania.us/threads/los-%C3%81ngeles-azules-cumbia-sinf%C3%B3nica-para-el-coraz%C3%B3n-en-vivo-auditorio-nacional-de-m%C3%A9xico-2023-star-web-dl-720p-tknobi.233639/]]></link>
                <description><![CDATA[<article>
<blockquote class="messageText SelectQuoteContainer ugc baseHtml">
<div style="text-align: center"><img src="https://i.postimg.cc/W35Kw16M/Los-ngeles-Azules-Cumbia-Sinf-nica-para-el-Coraz-n-En-Vivo-Audiotorio-Nacional-de-Mexico-2023-Star.jpg" class="bbCodeImage LbImage" alt="[​IMG]" data-url="https://i.postimg.cc/W35Kw16M/Los-ngeles-Azules-Cumbia-Sinf-nica-para-el-Coraz-n-En-Vivo-Audiotorio-Nacional-de-Mexico-2023-Star.jpg" style=""> <br>
​</div>
<div class="ToggleTriggerAnchor bbCodeSpoilerContainer">
<button type="button" class="button bbCodeSpoilerButton ToggleTrigger Tooltip JsOnly" data-target="> .SpoilerTarget"><span>Spoiler: <span class="SpoilerTitle">MediaInfo</span></span></button>
<div class="SpoilerTarget bbCodeSpoilerText">Format : Matroska<br>
Format version : Version 4<br>
File size : 8.42 GiB<br>
Duration : 2 h 52 min<br>
Overall bit rate : 6 994 kb/s<br>
Writing application : Lavf60.3.100<br>
Writing library : Lavf60.3.100<br>
ErrorDetectionType : Per level 1<br>
DATE : 2023<br>
<br>
Video<br>
ID : 1<br>
Format : AVC<br>
Format/Info : Advanced Video Codec<br>
Format profile : High@L3.2<br>
Format settings : CABAC / 4 Ref Frames<br>
Format settings, CABAC : Yes<br>
Format settings, Reference frames : 4 frames<br>
Codec ID : V_MPEG4/ISO/AVC<br>
Duration : 2 h 52 min<br>
Bit rate mode : Constant<br>
Nominal bit rate : 6 872 kb/s<br>
Width : 1 280 pixels<br>
Height : 720 pixels<br>
Display aspect ratio : 16:9<br>
Frame rate mode : Constant<br>
Frame rate : 59.940 (60000/1001) FPS<br>
Color space : YUV<br>
Chroma subsampling : 4:2:0<br>
Bit depth : 8 bits<br>
Scan type : Progressive<br>
Bits/(Pixel*Frame) : 0.124<br>
Writing library : AVC Coding<br>
Default : Yes<br>
Forced : No<br>
Color range : Limited<br>
VENDOR_ID : [0][0][0][0]<br>
<br>
Audio<br>
ID : 2<br>
Format : AAC LC<br>
Format/Info : Advanced Audio Codec Low Complexity<br>
Codec ID : A_AAC-2<br>
Duration : 2 h 52 min<br>
Channel(s) : 2 channels<br>
Channel layout : L R<br>
Sampling rate : 48.0 kHz<br>
Frame rate : 46.875 FPS (1024 SPF)<br>
Compression mode : Lossy<br>
Language : Spanish<br>
Default : Yes<br>
Forced : No<br>
VENDOR_ID : [0][0][0][0]</div>
</div><br>
<div style="text-align: center"><br>
<div class="bbCodeBlock bbCodeVfcHH HiddenContent">
<div class="attribution type">Hidden Content:</div>
<blockquote>You must reply before you can see the hidden data contained here.</blockquote>
</div></div>
<div class="messageTextEndMarker">&nbsp;</div>
</blockquote>
</article>]]></description>
                <author><![CDATA[tknobi]]></author>
                </item>

                
                <item>
                <title><![CDATA[【Apple Music】WEB-RiP - Emma Muscat - I Need Somebody (1080p)]]></title>
                <link><![CDATA[https://sharemania.us/threads/emma-muscat-i-need-somebody-1080p.233638/]]></link>
                <description><![CDATA[<article>
<blockquote class="messageText SelectQuoteContainer ugc baseHtml">
<img src="https://i.imgur.com/xhOa4Ar.jpg" class="bbCodeImage LbImage" alt="[​IMG]" data-url="https://i.imgur.com/xhOa4Ar.jpg" style=""><br>
<br>
<div class="bbCodeBlock bbCodeCode">
<div class="type">Code:</div>
<pre>General
Complete name                  : G:\Новая папка\Emma Muscat - I Need Somebody.mp4
Format                         : MPEG-4
Format profile                 : Base Media
Codec ID                       : isom (isom/iso2/avc1/mp41)
File size                      : 169 MiB
Duration                       : 3 min 28 s
Overall bit rate               : 6 786 kb/s
Frame rate                     : 25.000 FPS
Movie name                     : I Need Somebody
Performer                      : Emma Muscat
Genre                          : Pop
ContentType                    : Music Video
Recorded date                  : 2018-07-16 07:00:00 UTC
Writing application            : Lavf56.30.100
Copyright                      : ℗ 2018 Warner Records Inc./Warner Music Italy a Warner Music Group Company

Video
ID                             : 1
Format                         : AVC
Format/Info                    : Advanced Video Codec
Format profile                 : High@L4
Format settings                : CABAC / 5 Ref Frames
Format settings, CABAC         : Yes
Format settings, Reference fra : 5 frames
Codec ID                       : avc1
Codec ID/Info                  : Advanced Video Coding
Duration                       : 3 min 28 s
Bit rate                       : 6 539 kb/s
Width                          : 1 920 pixels
Height                         : 816 pixels
Display aspect ratio           : 2.35:1
Frame rate mode                : Constant
Frame rate                     : 25.000 FPS
Color space                    : YUV
Chroma subsampling             : 4:2:0
Bit depth                      : 8 bits
Scan type                      : Progressive
Bits/(Pixel*Frame)             : 0.167
Stream size                    : 163 MiB (96%)
Color range                    : Limited
Color primaries                : BT.709
Transfer characteristics       : BT.709
Matrix coefficients            : BT.709
Codec configuration box        : avcC

Audio
ID                             : 2
Format                         : AAC LC
Format/Info                    : Advanced Audio Codec Low Complexity
Codec ID                       : mp4a-40-2
Duration                       : 3 min 28 s
Bit rate mode                  : Constant
Bit rate                       : 243 kb/s
Channel(s)                     : 2 channels
Channel layout                 : L R
Sampling rate                  : 48.0 kHz
Frame rate                     : 46.875 FPS (1024 SPF)
Compression mode               : Lossy
Stream size                    : 6.05 MiB (4%)
Default                        : Yes
Alternate group                : 1

</pre>
</div>
<div class="bbCodeBlock bbCodeVfcHH HiddenContent">
<div class="attribution type">Hidden Content:</div>
<blockquote>You must either reply or click 'Like' to see the hidden information contained here.</blockquote>
</div>
<div class="messageTextEndMarker">&nbsp;</div>
</blockquote>
</article>]]></description>
                <author><![CDATA[vitalya3]]></author>
                </item>

                </channel></rss>